<svg data-v-423bf9ae="" xmlns="http://www.w3.org/2000/svg" viewBox="0 0 192.08092009174015 60" class="font"><!----><!----><defs data-v-423bf9ae=""><linearGradient data-v-423bf9ae="" gradientTransform="rotate(25)" id="3d5b251e-9eb7-47f3-aa79-f77e73dea4ad" x1="0%" y1="0%" x2="100%" y2="0%"><stop data-v-423bf9ae="" offset="0%" style="stop-color: rgb(253, 146, 69); stop-opacity: 1;"></stop><stop data-v-423bf9ae="" offset="100%" style="stop-color: rgb(6, 169, 107); stop-opacity: 1;"></stop></linearGradient></defs><g data-v-423bf9ae="" id="a24cc945-edb2-46ff-83db-4ecdd9f97120" fill="url(#3d5b251e-9eb7-47f3-aa79-f77e73dea4ad)" transform="matrix(5.780346757080136,0,0,5.780346757080136,5.40677774552023e-7,-20.231214126617637)"><path d="M5.11 13.83L5.11 13.83L5.11 13.83Q4.54 13.83 4.27 13.59L4.27 13.59L4.27 13.59Q3.99 13.35 3.99 12.82L3.99 12.82L3.99 4.14L3.99 4.14Q3.77 4.16 3.45 4.22L3.45 4.22L3.45 4.22Q3.12 4.28 2.77 4.39L2.77 4.39L2.77 4.39Q2.41 4.50 2.06 4.65L2.06 4.65L2.06 4.65Q1.70 4.81 1.42 5.01L1.42 5.01L1.42 5.01Q1.14 5.21 0.96 5.46L0.96 5.46L0.96 5.46Q0.79 5.71 0.79 6.02L0.79 6.02L0.79 6.02Q0.79 6.24 0.84 6.37L0.84 6.37L0.84 6.37Q0.90 6.50 0.98 6.57L0.98 6.57L0.98 6.57Q1.05 6.63 1.13 6.65L1.13 6.65L1.13 6.65Q1.21 6.67 1.24 6.67L1.24 6.67L1.24 6.67Q1.42 6.67 1.52 6.61L1.52 6.61L1.52 6.61Q1.63 6.55 1.72 6.48L1.72 6.48L1.72 6.48Q1.81 6.42 1.89 6.36L1.89 6.36L1.89 6.36Q1.97 6.30 2.07 6.30L2.07 6.30L2.07 6.30Q2.15 6.30 2.25 6.34L2.25 6.34L2.25 6.34Q2.34 6.38 2.42 6.46L2.42 6.46L2.42 6.46Q2.50 6.54 2.55 6.68L2.55 6.68L2.55 6.68Q2.60 6.81 2.60 7L2.60 7L2.60 7Q2.60 7.27 2.50 7.47L2.50 7.47L2.50 7.47Q2.39 7.67 2.23 7.80L2.23 7.80L2.23 7.80Q2.06 7.94 1.84 8.00L1.84 8.00L1.84 8.00Q1.63 8.07 1.42 8.07L1.42 8.07L1.42 8.07Q1.09 8.07 0.82 7.95L0.82 7.95L0.82 7.95Q0.56 7.84 0.38 7.64L0.38 7.64L0.38 7.64Q0.19 7.44 0.10 7.18L0.10 7.18L0.10 7.18Q0 6.91 0 6.61L0 6.61L0 6.61Q0 5.81 0.44 5.23L0.44 5.23L0.44 5.23Q0.88 4.64 1.65 4.26L1.65 4.26L1.65 4.26Q2.41 3.87 3.43 3.68L3.43 3.68L3.43 3.68Q4.45 3.50 5.61 3.50L5.61 3.50L5.61 3.50Q6.17 3.50 6.69 3.51L6.69 3.51L6.69 3.51Q7.22 3.52 7.65 3.54L7.65 3.54L7.65 3.54Q8.09 3.56 8.40 3.59L8.40 3.59L8.40 3.59Q8.72 3.62 8.86 3.65L8.86 3.65L8.86 3.65Q9.00 3.68 9.08 3.75L9.08 3.75L9.08 3.75Q9.16 3.81 9.20 3.90L9.20 3.90L9.20 3.90Q9.24 3.98 9.26 4.07L9.26 4.07L9.26 4.07Q9.27 4.16 9.27 4.26L9.27 4.26L9.27 4.26Q9.27 4.33 9.25 4.43L9.25 4.43L9.25 4.43Q9.23 4.53 9.19 4.62L9.19 4.62L9.19 4.62Q9.15 4.71 9.08 4.77L9.08 4.77L9.08 4.77Q9.02 4.83 8.93 4.83L8.93 4.83L8.93 4.83Q8.88 4.83 8.82 4.79L8.82 4.79L8.82 4.79Q8.76 4.74 8.66 4.67L8.66 4.67L8.66 4.67Q8.56 4.60 8.38 4.51L8.38 4.51L8.38 4.51Q8.21 4.42 7.93 4.35L7.93 4.35L7.93 4.35Q7.64 4.27 7.23 4.21L7.23 4.21L7.23 4.21Q6.82 4.15 6.23 4.13L6.23 4.13L6.23 12.82L6.23 12.82Q6.23 13.35 5.95 13.59L5.95 13.59L5.95 13.59Q5.68 13.83 5.11 13.83ZM8.15 10.22L8.15 10.22L8.15 10.22Q8.15 9.32 8.41 8.65L8.41 8.65L8.41 8.65Q8.67 7.98 9.10 7.53L9.10 7.53L9.10 7.53Q9.54 7.08 10.11 6.85L10.11 6.85L10.11 6.85Q10.68 6.62 11.31 6.62L11.31 6.62L11.31 6.62Q11.94 6.62 12.52 6.83L12.52 6.83L12.52 6.83Q13.09 7.04 13.52 7.47L13.52 7.47L13.52 7.47Q13.96 7.90 14.22 8.56L14.22 8.56L14.22 8.56Q14.48 9.22 14.48 10.12L14.48 10.12L14.48 10.12Q14.48 11.02 14.22 11.71L14.22 11.71L14.22 11.71Q13.96 12.40 13.52 12.87L13.52 12.87L13.52 12.87Q13.09 13.34 12.52 13.59L12.52 13.59L12.52 13.59Q11.94 13.83 11.31 13.83L11.31 13.83L11.31 13.83Q10.68 13.83 10.11 13.60L10.11 13.60L10.11 13.60Q9.54 13.37 9.10 12.92L9.10 12.92L9.10 12.92Q8.67 12.47 8.41 11.79L8.41 11.79L8.41 11.79Q8.15 11.12 8.15 10.22ZM12.35 10.15L12.35 10.15L12.35 10.15Q12.35 9.60 12.31 9.10L12.31 9.10L12.31 9.10Q12.28 8.59 12.17 8.19L12.17 8.19L12.17 8.19Q12.06 7.79 11.85 7.56L11.85 7.56L11.85 7.56Q11.65 7.32 11.31 7.32L11.31 7.32L11.31 7.32Q10.98 7.32 10.77 7.57L10.77 7.57L10.77 7.57Q10.57 7.82 10.46 8.23L10.46 8.23L10.46 8.23Q10.35 8.63 10.32 9.15L10.32 9.15L10.32 9.15Q10.28 9.67 10.28 10.22L10.28 10.22L10.28 10.22Q10.28 10.77 10.32 11.29L10.32 11.29L10.32 11.29Q10.35 11.81 10.46 12.22L10.46 12.22L10.46 12.22Q10.57 12.63 10.77 12.88L10.77 12.88L10.77 12.88Q10.98 13.13 11.31 13.13L11.31 13.13L11.31 13.13Q11.65 13.13 11.85 12.87L11.85 12.87L11.85 12.87Q12.06 12.61 12.17 12.19L12.17 12.19L12.17 12.19Q12.28 11.76 12.31 11.23L12.31 11.23L12.31 11.23Q12.35 10.70 12.35 10.15ZM18.23 12.36L18.23 4.70L18.23 4.70Q18.23 4.48 18.07 4.38L18.07 4.38L18.07 4.38Q17.91 4.27 17.72 4.27L17.72 4.27L17.72 4.27Q17.34 4.27 16.97 4.39L16.97 4.39L16.97 4.39Q16.61 4.50 16.32 4.69L16.32 4.69L16.32 4.69Q16.04 4.89 15.86 5.16L15.86 5.16L15.86 5.16Q15.69 5.43 15.69 5.74L15.69 5.74L15.69 5.74Q15.69 5.96 15.75 6.09L15.75 6.09L15.75 6.09Q15.80 6.22 15.88 6.29L15.88 6.29L15.88 6.29Q15.96 6.35 16.03 6.37L16.03 6.37L16.03 6.37Q16.11 6.38 16.15 6.38L16.15 6.38L16.15 6.38Q16.32 6.38 16.43 6.33L16.43 6.33L16.43 6.33Q16.54 6.27 16.63 6.20L16.63 6.20L16.63 6.20Q16.71 6.14 16.79 6.08L16.79 6.08L16.79 6.08Q16.87 6.02 16.97 6.02L16.97 6.02L16.97 6.02Q17.06 6.02 17.15 6.06L17.15 6.06L17.15 6.06Q17.24 6.10 17.32 6.18L17.32 6.18L17.32 6.18Q17.40 6.26 17.45 6.40L17.45 6.40L17.45 6.40Q17.51 6.53 17.51 6.72L17.51 6.72L17.51 6.72Q17.51 6.99 17.40 7.19L17.40 7.19L17.40 7.19Q17.29 7.39 17.13 7.52L17.13 7.52L17.13 7.52Q16.96 7.66 16.74 7.72L16.74 7.72L16.74 7.72Q16.53 7.79 16.32 7.79L16.32 7.79L16.32 7.79Q15.99 7.79 15.73 7.67L15.73 7.67L15.73 7.67Q15.46 7.56 15.28 7.36L15.28 7.36L15.28 7.36Q15.09 7.16 15.00 6.90L15.00 6.90L15.00 6.90Q14.90 6.63 14.90 6.33L14.90 6.33L14.90 6.33Q14.90 5.48 15.33 4.93L15.33 4.93L15.33 4.93Q15.76 4.38 16.51 4.06L16.51 4.06L16.51 4.06Q17.25 3.74 18.23 3.62L18.23 3.62L18.23 3.62Q19.22 3.50 20.34 3.50L20.34 3.50L20.34 3.50Q21.61 3.50 22.64 3.76L22.64 3.76L22.64 3.76Q23.67 4.01 24.40 4.59L24.40 4.59L24.40 4.59Q25.13 5.16 25.53 6.09L25.53 6.09L25.53 6.09Q25.92 7.01 25.92 8.35L25.92 8.35L25.92 8.35Q25.92 9.68 25.50 10.71L25.50 10.71L25.50 10.71Q25.08 11.74 24.35 12.44L24.35 12.44L24.35 12.44Q23.63 13.15 22.64 13.51L22.64 13.51L22.64 13.51Q21.66 13.88 20.54 13.88L20.54 13.88L20.54 13.88Q19.80 13.88 19.34 13.81L19.34 13.81L19.34 13.81Q18.89 13.73 18.64 13.56L18.64 13.56L18.64 13.56Q18.40 13.38 18.31 13.09L18.31 13.09L18.31 13.09Q18.23 12.80 18.23 12.36L18.23 12.36ZM20.49 5.00L20.49 12.42L20.49 12.42Q20.49 12.81 20.66 12.98L20.66 12.98L20.66 12.98Q20.84 13.15 21.18 13.15L21.18 13.15L21.18 13.15Q21.69 13.15 22.12 12.92L22.12 12.92L22.12 12.92Q22.56 12.69 22.87 12.14L22.87 12.14L22.87 12.14Q23.19 11.59 23.37 10.68L23.37 10.68L23.37 10.68Q23.54 9.76 23.54 8.37L23.54 8.37L23.54 8.37Q23.54 7.44 23.43 6.76L23.43 6.76L23.43 6.76Q23.32 6.08 23.13 5.61L23.13 5.61L23.13 5.61Q22.95 5.13 22.71 4.84L22.71 4.84L22.71 4.84Q22.48 4.54 22.23 4.37L22.23 4.37L22.23 4.37Q21.98 4.20 21.75 4.15L21.75 4.15L21.75 4.15Q21.51 4.09 21.33 4.09L21.33 4.09L21.33 4.09Q20.88 4.09 20.69 4.29L20.69 4.29L20.69 4.29Q20.49 4.48 20.49 5.00L20.49 5.00ZM26.90 10.22L26.90 10.22L26.90 10.22Q26.90 9.32 27.16 8.65L27.16 8.65L27.16 8.65Q27.42 7.98 27.85 7.53L27.85 7.53L27.85 7.53Q28.29 7.08 28.86 6.85L28.86 6.85L28.86 6.85Q29.44 6.62 30.06 6.62L30.06 6.62L30.06 6.62Q30.69 6.62 31.27 6.83L31.27 6.83L31.27 6.83Q31.84 7.04 32.28 7.47L32.28 7.47L32.28 7.47Q32.71 7.90 32.97 8.56L32.97 8.56L32.97 8.56Q33.23 9.22 33.23 10.12L33.23 10.12L33.23 10.12Q33.23 11.02 32.97 11.71L32.97 11.71L32.97 11.71Q32.71 12.40 32.28 12.87L32.28 12.87L32.28 12.87Q31.84 13.34 31.27 13.59L31.27 13.59L31.27 13.59Q30.69 13.83 30.06 13.83L30.06 13.83L30.06 13.83Q29.44 13.83 28.86 13.60L28.86 13.60L28.86 13.60Q28.29 13.37 27.85 12.92L27.85 12.92L27.85 12.92Q27.42 12.47 27.16 11.79L27.16 11.79L27.16 11.79Q26.90 11.12 26.90 10.22ZM31.10 10.15L31.10 10.15L31.10 10.15Q31.10 9.60 31.07 9.10L31.07 9.10L31.07 9.10Q31.03 8.59 30.92 8.19L30.92 8.19L30.92 8.19Q30.81 7.79 30.60 7.56L30.60 7.56L30.60 7.56Q30.40 7.32 30.06 7.32L30.06 7.32L30.06 7.32Q29.73 7.32 29.52 7.57L29.52 7.57L29.52 7.57Q29.32 7.82 29.21 8.23L29.21 8.23L29.21 8.23Q29.10 8.63 29.07 9.15L29.07 9.15L29.07 9.15Q29.03 9.67 29.03 10.22L29.03 10.22L29.03 10.22Q29.03 10.77 29.07 11.29L29.07 11.29L29.07 11.29Q29.10 11.81 29.21 12.22L29.21 12.22L29.21 12.22Q29.32 12.63 29.52 12.88L29.52 12.88L29.52 12.88Q29.73 13.13 30.06 13.13L30.06 13.13L30.06 13.13Q30.40 13.13 30.60 12.87L30.60 12.87L30.60 12.87Q30.81 12.61 30.92 12.19L30.92 12.19L30.92 12.19Q31.03 11.76 31.07 11.23L31.07 11.23L31.07 11.23Q31.10 10.70 31.10 10.15Z"></path></g><!----><!----></svg>